<?xml version="1.0" standalone="no"?>
<!DOCTYPE svg PUBLIC "-//W3C//DTD SVG 20010904//EN"
 "http://www.w3.org/TR/2001/REC-SVG-20010904/DTD/svg10.dtd">
<svg version="1.0" xmlns="http://www.w3.org/2000/svg"
 width="16.000000pt" height="16.000000pt" viewBox="0 0 16.000000 16.000000"
 preserveAspectRatio="xMidYMid meet">

<g transform="translate(0.000000,16.000000) scale(0.100000,-0.100000)"
fill="#000000" stroke="none">
<path d="M43 148 c-55 -27 -50 -114 8 -138 89 -37 151 99 63 139 -30 13 -42
13 -71 -1z m27 -62 c0 -38 -15 -55 -33 -36 -9 9 -8 11 3 8 19 -4 26 42 8 53
-10 7 -9 9 5 9 13 0 17 -8 17 -34z m55 24 c3 -6 -1 -7 -9 -4 -9 3 -16 2 -16
-4 0 -5 7 -12 15 -16 17 -6 20 -32 4 -42 -6 -3 -16 -1 -22 5 -9 9 -8 11 6 6
22 -9 23 11 0 23 -10 6 -14 16 -10 26 7 18 23 21 32 6z"/>
</g>
</svg>
